{
  "accessors": [
    {
      "bufferView": 2,
      "componentType": 5126,
      "count": 149,
      "max": [
        17.014497756958008,
        7.559147834777832,
        9.110034942626953
      ],
      "min": [
        14.276386260986328,
        4.8210368156433105,
        4.266894817352295
      ],
      "type": "VEC3"
    },
    {
      "bufferView": 2,
      "byteOffset": 1788,
      "componentType": 5126,
      "count": 149,
      "max": [
        1.0,
        1.0,
        1.0
      ],
      "min": [
        -1.0,
        -1.0,
        0.0
      ],
      "type": "VEC3"
    },
    {
      "bufferView": 1,
      "componentType": 5126,
      "count": 149,
      "max": [
        0.9835050106048584,
        0.9781680107116699
      ],
      "min": [
        0.023698000237345695,
        0.025777999311685562
      ],
      "type": "VEC2"
    },
    {
      "bufferView": 0,
      "componentType": 5125,
      "count": 468,
      "type": "SCALAR"
    },
    {
      "bufferView": 2,
      "byteOffset": 3576,
      "componentType": 5126,
      "count": 85,
      "max": [
        -5.914970874786377,
        8.778931617736816,
        7.386927127838135
      ],
      "min": [
        -9.088513374328613,
        6.332092761993408,
        3.3858730792999268
      ],
      "type": "VEC3"
    },
    {
      "bufferView": 2,
      "byteOffset": 4596,
      "componentType": 5126,
      "count": 85,
      "max": [
        0.9762001037597656,
        -0.21687203645706177,
        0.6422267556190491
      ],
      "min": [
        -0.04259801656007767,
        -0.9996998906135559,
        -0.6422271728515625
      ],
      "type": "VEC3"
    },
    {
      "bufferView": 1,
      "byteOffset": 1192,
      "componentType": 5126,
      "count": 85,
      "max": [
        0.9923819899559021,
        0.37836501002311707
      ],
      "min": [
        0.7098619937896729,
        0.09584499895572662
      ],
      "type": "VEC2"
    },
    {
      "bufferView": 0,
      "byteOffset": 1872,
      "componentType": 5125,
      "count": 468,
      "type": "SCALAR"
    },
    {
      "bufferView": 2,
      "byteOffset": 5616,
      "componentType": 5126,
      "count": 2293,
      "max": [
        24.099634170532227,
        14.639970779418945,
        7.035330772399902
      ],
      "min": [
        7.1998610496521,
        -2.2598021030426025,
        1.2193880081176758
      ],
      "type": "VEC3"
    },
    {
      "bufferView": 2,
      "byteOffset": 33132,
      "componentType": 5126,
      "count": 2293,
      "max": [
        0.9982948899269104,
        0.9982948899269104,
        0.9999970197677612
      ],
      "min": [
        -0.9982950091362,
        -0.9982948899269104,
        -0.9977498650550842
      ],
      "type": "VEC3"
    },
    {
      "bufferView": 1,
      "byteOffset": 1872,
      "componentType": 5126,
      "count": 2293,
      "max": [
        0.9966149926185608,
        0.9897239804267883
      ],
      "min": [
        0.0037509999237954617,
        0.007891999557614326
      ],
      "type": "VEC2"
    },
    {
      "bufferView": 0,
      "byteOffset": 3744,
      "componentType": 5125,
      "count": 7968,
      "type": "SCALAR"
    },
    {
      "bufferView": 2,
      "byteOffset": 60648,
      "componentType": 5126,
      "count": 179,
      "max": [
        20.754810333251953,
        11.295145988464355,
        6.1785478591918945
      ],
      "min": [
        10.544686317443848,
        1.08502197265625,
        0.026141000911593437
      ],
      "type": "VEC3"
    },
    {
      "bufferView": 2,
      "byteOffset": 62796,
      "componentType": 5126,
      "count": 179,
      "max": [
        1.0,
        1.0,
        1.0
      ],
      "min": [
        -1.0,
        -1.0,
        -1.0
      ],
      "type": "VEC3"
    },
    {
      "bufferView": 1,
      "byteOffset": 20216,
      "componentType": 5126,
      "count": 179,
      "max": [
        0.9990469813346863,
        0.9952600002288818
      ],
      "min": [
        0.0016270000487565994,
        0.003780999919399619
      ],
      "type": "VEC2"
    },
    {
      "bufferView": 0,
      "byteOffset": 35616,
      "componentType": 5125,
      "count": 654,
      "type": "SCALAR"
    },
    {
      "bufferView": 2,
      "byteOffset": 64944,
      "componentType": 5126,
      "count": 156,
      "max": [
        -4.304864883422852,
        11.246453285217285,
        8.744083404541016
      ],
      "min": [
        -11.339278221130371,
        4.657835960388184,
        2.046797037124634
      ],
      "type": "VEC3"
    },
    {
      "bufferView": 2,
      "byteOffset": 66816,
      "componentType": 5126,
      "count": 156,
      "max": [
        3.000000106112566e-06,
        9.999999974752427e-07,
        1.0
      ],
      "min": [
        -9.999999974752427e-07,
        -3.000000106112566e-06,
        -1.0
      ],
      "type": "VEC3"
    },
    {
      "bufferView": 1,
      "byteOffset": 21648,
      "componentType": 5126,
      "count": 156,
      "max": [
        0.0,
        0.0
      ],
      "min": [
        0.0,
        0.0
      ],
      "type": "VEC2"
    },
    {
      "bufferView": 0,
      "byteOffset": 38232,
      "componentType": 5125,
      "count": 432,
      "type": "SCALAR"
    },
    {
      "bufferView": 2,
      "byteOffset": 68688,
      "componentType": 5126,
      "count": 1860,
      "max": [
        -2.574521064758301,
        13.201762199401855,
        11.946554183959961
      ],
      "min": [
        -13.069673538208008,
        2.7066099643707275,
        0.0
      ],
      "type": "VEC3"
    },
    {
      "bufferView": 2,
      "byteOffset": 91008,
      "componentType": 5126,
      "count": 1860,
      "max": [
        0.9914827346801758,
        0.9914827346801758,
        1.0
      ],
      "min": [
        -0.9914069771766663,
        -0.9914827346801758,
        -1.0
      ],
      "type": "VEC3"
    },
    {
      "bufferView": 1,
      "byteOffset": 22896,
      "componentType": 5126,
      "count": 1860,
      "max": [
        0.9987879991531372,
        0.9931920170783997
      ],
      "min": [
        0.00520800007507205,
        0.014797000214457512
      ],
      "type": "VEC2"
    },
    {
      "bufferView": 0,
      "byteOffset": 39960,
      "componentType": 5125,
      "count": 6300,
      "type": "SCALAR"
    },
    {
      "bufferView": 2,
      "byteOffset": 113328,
      "componentType": 5126,
      "count": 646,
      "max": [
        20.75627326965332,
        10.033578872680664,
        2.0779030323028564
      ],
      "min": [
        -8.717198371887207,
        -20.094404220581055,
        -0.2942430078983307
      ],
      "type": "VEC3"
    },
    {
      "bufferView": 2,
      "byteOffset": 121080,
      "componentType": 5126,
      "count": 646,
      "max": [
        0.9974297881126404,
        0.9978787899017334,
        1.0
      ],
      "min": [
        -0.9872691035270691,
        -0.9936484694480896,
        -1.0
      ],
      "type": "VEC3"
    },
    {
      "bufferView": 1,
      "byteOffset": 37776,
      "componentType": 5126,
      "count": 646,
      "max": [
        0.9990839958190918,
        0.9966080188751221
      ],
      "min": [
        0.0017659999430179596,
        0.006060999818146229
      ],
      "type": "VEC2"
    },
    {
      "bufferView": 0,
      "byteOffset": 65160,
      "componentType": 5125,
      "count": 2712,
      "type": "SCALAR"
    },
    {
      "bufferView": 2,
      "byteOffset": 128832,
      "componentType": 5126,
      "count": 420,
      "max": [
        -1.8589719533920288,
        8.113560676574707,
        4.212364196777344
      ],
      "min": [
        -30.453296661376953,
        -22.14179039001465,
        -0.015038000419735909
      ],
      "type": "VEC3"
    },
    {
      "bufferView": 2,
      "byteOffset": 133872,
      "componentType": 5126,
      "count": 420,
      "max": [
        0.9915846586227417,
        0.9929197430610657,
        1.0
      ],
      "min": [
        -0.9872604608535767,
        -0.9941980242729187,
        -1.0
      ],
      "type": "VEC3"
    },
    {
      "bufferView": 1,
      "byteOffset": 42944,
      "componentType": 5126,
      "count": 420,
      "max": [
        0.9961230158805847,
        0.9966700077056885
      ],
      "min": [
        0.0022780001163482666,
        0.003407000098377466
      ],
      "type": "VEC2"
    },
    {
      "bufferView": 0,
      "byteOffset": 76008,
      "componentType": 5125,
      "count": 1332,
      "type": "SCALAR"
    }
  ],
  "asset": {
    "extras": {
      "author": "ZoeChuiYan (https://sketchfab.com/zoelofutureworks)",
      "license": "CC-BY-4.0 (http://creativecommons.org/licenses/by/4.0/)",
      "source": "https://sketchfab.com/3d-models/prop-modelling-diorama-d59d9cefc083470896901c9ea2d37440",
      "title": "Prop Modelling: Diorama"
    },
    "generator": "Sketchfab-12.67.0",
    "version": "2.0"
  },
  "bufferViews": [
    {
      "buffer": 0,
      "byteLength": 81336,
      "name": "floatBufferViews",
      "target": 34963
    },
    {
      "buffer": 0,
      "byteLength": 46304,
      "byteOffset": 81336,
      "byteStride": 8,
      "name": "floatBufferViews",
      "target": 34962
    },
    {
      "buffer": 0,
      "byteLength": 138912,
      "byteOffset": 127640,
      "byteStride": 12,
      "name": "floatBufferViews",
      "target": 34962
    }
  ],
  "buffers": [
    {
      "byteLength": 266552,
      "uri": "scene.bin"
    }
  ],
  "extensionsUsed": [
    "KHR_materials_transmission"
  ],
  "images": [
    {
      "uri": "textures/blinn1SG_baseColor.jpeg"
    },
    {
      "uri": "textures/blinn2SG_baseColor.jpeg"
    },
    {
      "uri": "textures/blinn3SG_baseColor.jpeg"
    },
    {
      "uri": "textures/clock05blinn1SG_baseColor.jpeg"
    },
    {
      "uri": "textures/clock05blinn2SG_baseColor.png"
    },
    {
      "uri": "textures/clock05blinn2SG_transmission.png"
    },
    {
      "uri": "textures/closed_book06lambert2SG_baseColor.jpeg"
    },
    {
      "uri": "textures/scroll04lambert2SG_baseColor.jpeg"
    }
  ],
  "materials": [
    {
      "doubleSided": true,
      "name": "blinn1SG",
      "pbrMetallicRoughness": {
        "baseColorTexture": {
          "index": 0
        },
        "metallicFactor": 0.0,
        "roughnessFactor": 0.6
      }
    },
    {
      "doubleSided": true,
      "name": "blinn2SG",
      "pbrMetallicRoughness": {
        "baseColorTexture": {
          "index": 1
        },
        "metallicFactor": 0.0,
        "roughnessFactor": 0.6
      }
    },
    {
      "doubleSided": true,
      "name": "blinn3SG",
      "pbrMetallicRoughness": {
        "baseColorTexture": {
          "index": 2
        },
        "metallicFactor": 0.0,
        "roughnessFactor": 0.6
      }
    },
    {
      "doubleSided": true,
      "name": "clock05blinn1SG",
      "pbrMetallicRoughness": {
        "baseColorTexture": {
          "index": 3
        },
        "metallicFactor": 0.0,
        "roughnessFactor": 0.6
      }
    },
    {
      "alphaMode": "BLEND",
      "doubleSided": true,
      "extensions": {
        "KHR_materials_transmission": {
          "transmissionFactor": 1.0,
          "transmissionTexture": {
            "index": 5
          }
        }
      },
      "name": "clock05blinn2SG",
      "pbrMetallicRoughness": {
        "baseColorTexture": {
          "index": 4
        },
        "metallicFactor": 0.0,
        "roughnessFactor": 0.5
      }
    },
    {
      "doubleSided": true,
      "name": "closed_book06lambert2SG",
      "pbrMetallicRoughness": {
        "baseColorTexture": {
          "index": 6
        },
        "metallicFactor": 0.0,
        "roughnessFactor": 0.6
      }
    },
    {
      "doubleSided": true,
      "name": "scroll04lambert2SG",
      "pbrMetallicRoughness": {
        "baseColorTexture": {
          "index": 7
        },
        "metallicFactor": 0.0,
        "roughnessFactor": 0.6
      }
    }
  ],
  "meshes": [
    {
      "name": "Object_0",
      "primitives": [
        {
          "attributes": {
            "NORMAL": 1,
            "POSITION": 0,
            "TEXCOORD_0": 2
          },
          "indices": 3,
          "material": 1,
          "mode": 4
        }
      ]
    },
    {
      "name": "Object_1",
      "primitives": [
        {
          "attributes": {
            "NORMAL": 5,
            "POSITION": 4,
            "TEXCOORD_0": 6
          },
          "indices": 7,
          "material": 4,
          "mode": 4
        }
      ]
    },
    {
      "name": "Object_2",
      "primitives": [
        {
          "attributes": {
            "NORMAL": 9,
            "POSITION": 8,
            "TEXCOORD_0": 10
          },
          "indices": 11,
          "material": 0,
          "mode": 4
        }
      ]
    },
    {
      "name": "Object_3",
      "primitives": [
        {
          "attributes": {
            "NORMAL": 13,
            "POSITION": 12,
            "TEXCOORD_0": 14
          },
          "indices": 15,
          "material": 2,
          "mode": 4
        }
      ]
    },
    {
      "name": "Object_4",
      "primitives": [
        {
          "attributes": {
            "NORMAL": 17,
            "POSITION": 16,
            "TEXCOORD_0": 18
          },
          "indices": 19,
          "material": 3,
          "mode": 4
        }
      ]
    },
    {
      "name": "Object_5",
      "primitives": [
        {
          "attributes": {
            "NORMAL": 21,
            "POSITION": 20,
            "TEXCOORD_0": 22
          },
          "indices": 23,
          "material": 3,
          "mode": 4
        }
      ]
    },
    {
      "name": "Object_6",
      "primitives": [
        {
          "attributes": {
            "NORMAL": 25,
            "POSITION": 24,
            "TEXCOORD_0": 26
          },
          "indices": 27,
          "material": 5,
          "mode": 4
        }
      ]
    },
    {
      "name": "Object_7",
      "primitives": [
        {
          "attributes": {
            "NORMAL": 29,
            "POSITION": 28,
            "TEXCOORD_0": 30
          },
          "indices": 31,
          "material": 6,
          "mode": 4
        }
      ]
    }
  ],
  "nodes": [
    {
      "children": [
        1
      ],
      "matrix": [
        1.0,
        0.0,
        0.0,
        0.0,
        0.0,
        2.220446049250313e-16,
        -1.0,
        0.0,
        0.0,
        1.0,
        2.220446049250313e-16,
        0.0,
        0.0,
        0.0,
        0.0,
        1.0
      ],
      "name": "Sketchfab_model"
    },
    {
      "children": [
        2,
        3,
        4,
        5,
        6,
        7,
        8,
        9
      ],
      "name": "diorama.obj.cleaner.materialmerger.gles"
    },
    {
      "mesh": 0,
      "name": "Object_2"
    },
    {
      "mesh": 1,
      "name": "Object_3"
    },
    {
      "mesh": 2,
      "name": "Object_4"
    },
    {
      "mesh": 3,
      "name": "Object_5"
    },
    {
      "mesh": 4,
      "name": "Object_6"
    },
    {
      "mesh": 5,
      "name": "Object_7"
    },
    {
      "mesh": 6,
      "name": "Object_8"
    },
    {
      "mesh": 7,
      "name": "Object_9"
    }
  ],
  "samplers": [
    {
      "magFilter": 9729,
      "minFilter": 9987,
      "wrapS": 10497,
      "wrapT": 10497
    }
  ],
  "scene": 0,
  "scenes": [
    {
      "name": "Sketchfab_Scene",
      "nodes": [
        0
      ]
    }
  ],
  "textures": [
    {
      "sampler": 0,
      "source": 0
    },
    {
      "sampler": 0,
      "source": 1
    },
    {
      "sampler": 0,
      "source": 2
    },
    {
      "sampler": 0,
      "source": 3
    },
    {
      "sampler": 0,
      "source": 4
    },
    {
      "sampler": 0,
      "source": 5
    },
    {
      "sampler": 0,
      "source": 6
    },
    {
      "sampler": 0,
      "source": 7
    }
  ]
}
