{
  "accessors": [
    {
      "bufferView": 2,
      "componentType": 5126,
      "count": 65532,
      "max": [
        126.02999877929688,
        51.619998931884766,
        499.95001220703125
      ],
      "min": [
        -163.88999938964844,
        -226.0800018310547,
        21.459999084472656
      ],
      "type": "VEC3"
    },
    {
      "bufferView": 2,
      "byteOffset": 786384,
      "componentType": 5126,
      "count": 65532,
      "max": [
        1.0,
        1.0,
        1.0
      ],
      "min": [
        -1.0,
        -1.0,
        -1.0
      ],
      "type": "VEC3"
    },
    {
      "bufferView": 1,
      "componentType": 5126,
      "count": 65532,
      "max": [
        0.9849100112915039,
        0.9952300190925598
      ],
      "min": [
        0.6232900023460388,
        0.005750000011175871
      ],
      "type": "VEC2"
    },
    {
      "bufferView": 0,
      "componentType": 5125,
      "count": 127746,
      "type": "SCALAR"
    },
    {
      "bufferView": 2,
      "byteOffset": 1572768,
      "componentType": 5126,
      "count": 19576,
      "max": [
        135.66000366210938,
        38.349998474121094,
        495.2799987792969
      ],
      "min": [
        -145.86000061035156,
        -225.1199951171875,
        22.579999923706055
      ],
      "type": "VEC3"
    },
    {
      "bufferView": 2,
      "byteOffset": 1807680,
      "componentType": 5126,
      "count": 19576,
      "max": [
        1.0,
        1.0,
        1.0
      ],
      "min": [
        -1.0,
        -1.0,
        -1.0
      ],
      "type": "VEC3"
    },
    {
      "bufferView": 1,
      "byteOffset": 524256,
      "componentType": 5126,
      "count": 19576,
      "max": [
        0.9849100112915039,
        0.9952300190925598
      ],
      "min": [
        0.6232900023460388,
        0.005750000011175871
      ],
      "type": "VEC2"
    },
    {
      "bufferView": 0,
      "byteOffset": 510984,
      "componentType": 5125,
      "count": 32808,
      "type": "SCALAR"
    },
    {
      "bufferView": 2,
      "byteOffset": 2042592,
      "componentType": 5126,
      "count": 2352,
      "max": [
        86.26000213623047,
        41.70000076293945,
        483.04998779296875
      ],
      "min": [
        -118.31999969482422,
        -176.8699951171875,
        -0.07000000029802322
      ],
      "type": "VEC3"
    },
    {
      "bufferView": 2,
      "byteOffset": 2070816,
      "componentType": 5126,
      "count": 2352,
      "max": [
        0.999998927116394,
        0.999333381652832,
        0.9883668422698975
      ],
      "min": [
        -0.9999995231628418,
        -0.9993464350700378,
        -0.7663384675979614
      ],
      "type": "VEC3"
    },
    {
      "bufferView": 1,
      "byteOffset": 680864,
      "componentType": 5126,
      "count": 2352,
      "max": [
        0.7060800194740295,
        10.063610076904297
      ],
      "min": [
        0.001610000035725534,
        -8.936220169067383
      ],
      "type": "VEC2"
    },
    {
      "bufferView": 0,
      "byteOffset": 642216,
      "componentType": 5125,
      "count": 9300,
      "type": "SCALAR"
    }
  ],
  "asset": {
    "extras": {
      "author": "1-3D.com (https://sketchfab.com/1-3D.com)",
      "license": "CC-BY-SA-4.0 (http://creativecommons.org/licenses/by-sa/4.0/)",
      "source": "https://sketchfab.com/3d-models/bamboo-420d5be345904567a51466259c9476a2",
      "title": "Bamboo"
    },
    "generator": "Sketchfab-12.78.0",
    "version": "2.0"
  },
  "bufferViews": [
    {
      "buffer": 0,
      "byteLength": 679416,
      "name": "floatBufferViews",
      "target": 34963
    },
    {
      "buffer": 0,
      "byteLength": 699680,
      "byteOffset": 679416,
      "byteStride": 8,
      "name": "floatBufferViews",
      "target": 34962
    },
    {
      "buffer": 0,
      "byteLength": 2099040,
      "byteOffset": 1379096,
      "byteStride": 12,
      "name": "floatBufferViews",
      "target": 34962
    }
  ],
  "buffers": [
    {
      "byteLength": 3478136,
      "uri": "scene.bin"
    }
  ],
  "images": [
    {
      "uri": "textures/Leaves_baseColor.jpeg"
    }
  ],
  "materials": [
    {
      "doubleSided": true,
      "name": "Leaves",
      "pbrMetallicRoughness": {
        "baseColorTexture": {
          "index": 0
        },
        "metallicFactor": 0.0,
        "roughnessFactor": 0.9843362894265184
      }
    },
    {
      "doubleSided": true,
      "name": "Trunk",
      "pbrMetallicRoughness": {
        "baseColorTexture": {
          "index": 0
        },
        "metallicFactor": 0.0,
        "roughnessFactor": 0.9911086029498054
      }
    }
  ],
  "meshes": [
    {
      "name": "Object_0",
      "primitives": [
        {
          "attributes": {
            "NORMAL": 1,
            "POSITION": 0,
            "TEXCOORD_0": 2
          },
          "indices": 3,
          "material": 0,
          "mode": 4
        }
      ]
    },
    {
      "name": "Object_1",
      "primitives": [
        {
          "attributes": {
            "NORMAL": 5,
            "POSITION": 4,
            "TEXCOORD_0": 6
          },
          "indices": 7,
          "material": 0,
          "mode": 4
        }
      ]
    },
    {
      "name": "Object_2",
      "primitives": [
        {
          "attributes": {
            "NORMAL": 9,
            "POSITION": 8,
            "TEXCOORD_0": 10
          },
          "indices": 11,
          "material": 1,
          "mode": 4
        }
      ]
    }
  ],
  "nodes": [
    {
      "children": [
        1
      ],
      "matrix": [
        1.0,
        0.0,
        0.0,
        0.0,
        0.0,
        2.220446049250313e-16,
        -1.0,
        0.0,
        0.0,
        1.0,
        2.220446049250313e-16,
        0.0,
        0.0,
        0.0,
        0.0,
        1.0
      ],
      "name": "Sketchfab_model"
    },
    {
      "children": [
        2,
        3,
        4
      ],
      "name": "bamboo.obj.cleaner.materialmerger.gles"
    },
    {
      "mesh": 0,
      "name": "Object_2"
    },
    {
      "mesh": 1,
      "name": "Object_3"
    },
    {
      "mesh": 2,
      "name": "Object_4"
    }
  ],
  "samplers": [
    {
      "magFilter": 9729,
      "minFilter": 9987,
      "wrapS": 10497,
      "wrapT": 10497
    }
  ],
  "scene": 0,
  "scenes": [
    {
      "name": "Sketchfab_Scene",
      "nodes": [
        0
      ]
    }
  ],
  "textures": [
    {
      "sampler": 0,
      "source": 0
    }
  ]
}
