{
  "accessors": [
    {
      "bufferView": 2,
      "componentType": 5126,
      "count": 495,
      "max": [
        0.19436760246753693,
        0.19736602902412415,
        0.7635043263435364
      ],
      "min": [
        -0.19436760246753693,
        -0.19736599922180176,
        -0.19923356175422668
      ],
      "type": "VEC3"
    },
    {
      "bufferView": 2,
      "byteOffset": 5940,
      "componentType": 5126,
      "count": 495,
      "max": [
        0.9848124384880066,
        1.0,
        1.0
      ],
      "min": [
        -0.9848124384880066,
        -1.0,
        -1.0
      ],
      "type": "VEC3"
    },
    {
      "bufferView": 1,
      "componentType": 5126,
      "count": 495,
      "max": [
        0.9998152852058411,
        0.9901162981987
      ],
      "min": [
        0.011903404258191586,
        0.014339565299451351
      ],
      "type": "VEC2"
    },
    {
      "bufferView": 0,
      "componentType": 5125,
      "count": 2148,
      "type": "SCALAR"
    }
  ],
  "asset": {
    "extras": {
      "author": "Mizuchi Sensei (https://sketchfab.com/FatFreeBeefCake)",
      "license": "CC-BY-4.0 (http://creativecommons.org/licenses/by/4.0/)",
      "source": "https://sketchfab.com/3d-models/asahi-beer-can-fe2a9ebd2b0f46c1aae999c4d1f1a5eb",
      "title": "Asahi Beer Can"
    },
    "generator": "Sketchfab-12.68.0",
    "version": "2.0"
  },
  "bufferViews": [
    {
      "buffer": 0,
      "byteLength": 8592,
      "name": "floatBufferViews",
      "target": 34963
    },
    {
      "buffer": 0,
      "byteLength": 3960,
      "byteOffset": 8592,
      "byteStride": 8,
      "name": "floatBufferViews",
      "target": 34962
    },
    {
      "buffer": 0,
      "byteLength": 11880,
      "byteOffset": 12552,
      "byteStride": 12,
      "name": "floatBufferViews",
      "target": 34962
    }
  ],
  "buffers": [
    {
      "byteLength": 24432,
      "uri": "scene.bin"
    }
  ],
  "images": [
    {
      "uri": "textures/BeerCanText_baseColor.png"
    }
  ],
  "materials": [
    {
      "doubleSided": true,
      "name": "BeerCanText",
      "pbrMetallicRoughness": {
        "baseColorTexture": {
          "index": 0
        },
        "metallicFactor": 0.0,
        "roughnessFactor": 0.7711690202509157
      }
    }
  ],
  "meshes": [
    {
      "name": "Cylinder_BeerCanText_0",
      "primitives": [
        {
          "attributes": {
            "NORMAL": 1,
            "POSITION": 0,
            "TEXCOORD_0": 2
          },
          "indices": 3,
          "material": 0,
          "mode": 4
        }
      ]
    }
  ],
  "nodes": [
    {
      "children": [
        1
      ],
      "matrix": [
        1.0,
        0.0,
        0.0,
        0.0,
        0.0,
        2.220446049250313e-16,
        -1.0,
        0.0,
        0.0,
        1.0,
        2.220446049250313e-16,
        0.0,
        0.0,
        0.0,
        0.0,
        1.0
      ],
      "name": "Sketchfab_model"
    },
    {
      "children": [
        2
      ],
      "matrix": [
        1.0,
        0.0,
        0.0,
        0.0,
        0.0,
        0.0,
        1.0,
        0.0,
        0.0,
        -1.0,
        0.0,
        0.0,
        0.0,
        0.0,
        0.0,
        1.0
      ],
      "name": "bdd8905c18c34b60bf376547551c51e5.fbx"
    },
    {
      "children": [
        3
      ],
      "name": "RootNode"
    },
    {
      "children": [
        4
      ],
      "matrix": [
        100.0,
        0.0,
        0.0,
        0.0,
        0.0,
        -1.629206793918314e-05,
        -99.99999999999868,
        0.0,
        0.0,
        99.99999999999868,
        -1.629206793918314e-05,
        0.0,
        0.0,
        19.918733596801758,
        0.0,
        1.0
      ],
      "name": "Cylinder"
    },
    {
      "mesh": 0,
      "name": "Cylinder_BeerCanText_0"
    }
  ],
  "samplers": [
    {
      "magFilter": 9729,
      "minFilter": 9987,
      "wrapS": 10497,
      "wrapT": 10497
    }
  ],
  "scene": 0,
  "scenes": [
    {
      "name": "Sketchfab_Scene",
      "nodes": [
        0
      ]
    }
  ],
  "textures": [
    {
      "sampler": 0,
      "source": 0
    }
  ]
}
