{
  "accessors": [
    {
      "bufferView": 2,
      "componentType": 5126,
      "count": 5771,
      "max": [
        5.628317832946777,
        3.057823896408081,
        2.2125558853149414
      ],
      "min": [
        -6.195956230163574,
        -0.20017600059509277,
        -3.106379985809326
      ],
      "type": "VEC3"
    },
    {
      "bufferView": 2,
      "byteOffset": 69252,
      "componentType": 5126,
      "count": 5771,
      "max": [
        0.9950593113899231,
        0.9997718930244446,
        0.9997285008430481
      ],
      "min": [
        -0.9995554089546204,
        -0.9999963045120239,
        -0.9998863935470581
      ],
      "type": "VEC3"
    },
    {
      "bufferView": 1,
      "componentType": 5126,
      "count": 5771,
      "max": [
        0.978971004486084,
        0.9723989963531494
      ],
      "min": [
        0.02062699943780899,
        0.02943497896194458
      ],
      "type": "VEC2"
    },
    {
      "bufferView": 0,
      "componentType": 5125,
      "count": 28668,
      "type": "SCALAR"
    },
    {
      "bufferView": 2,
      "byteOffset": 138504,
      "componentType": 5126,
      "count": 5736,
      "max": [
        3.0513041019439697,
        2.8498640060424805,
        1.7283430099487305
      ],
      "min": [
        -2.8842320442199707,
        -0.056664999574422836,
        -1.327043056488037
      ],
      "type": "VEC3"
    },
    {
      "bufferView": 2,
      "byteOffset": 207336,
      "componentType": 5126,
      "count": 5736,
      "max": [
        0.9984613060951233,
        0.9996375441551208,
        0.9998713731765747
      ],
      "min": [
        -0.9982234239578247,
        -0.9999967813491821,
        -0.9998558759689331
      ],
      "type": "VEC3"
    },
    {
      "bufferView": 1,
      "byteOffset": 46168,
      "componentType": 5126,
      "count": 5736,
      "max": [
        0.9675740003585815,
        0.980027973651886
      ],
      "min": [
        0.03602699935436249,
        0.024414002895355225
      ],
      "type": "VEC2"
    },
    {
      "bufferView": 0,
      "byteOffset": 114672,
      "componentType": 5125,
      "count": 28860,
      "type": "SCALAR"
    }
  ],
  "asset": {
    "extras": {
      "author": "seirogan (https://sketchfab.com/seirogan)",
      "license": "CC-BY-4.0 (http://creativecommons.org/licenses/by/4.0/)",
      "source": "https://sketchfab.com/3d-models/sushi-17f07d3c00524b679ea2af14bc24f550",
      "title": "Sushi"
    },
    "generator": "Sketchfab-12.66.0",
    "version": "2.0"
  },
  "bufferViews": [
    {
      "buffer": 0,
      "byteLength": 230112,
      "name": "floatBufferViews",
      "target": 34963
    },
    {
      "buffer": 0,
      "byteLength": 92056,
      "byteOffset": 230112,
      "byteStride": 8,
      "name": "floatBufferViews",
      "target": 34962
    },
    {
      "buffer": 0,
      "byteLength": 276168,
      "byteOffset": 322168,
      "byteStride": 12,
      "name": "floatBufferViews",
      "target": 34962
    }
  ],
  "buffers": [
    {
      "byteLength": 598336,
      "uri": "scene.bin"
    }
  ],
  "extensionsRequired": [
    "KHR_materials_pbrSpecularGlossiness"
  ],
  "extensionsUsed": [
    "KHR_materials_pbrSpecularGlossiness"
  ],
  "images": [
    {
      "uri": "textures/sushi_diffuse.jpeg"
    },
    {
      "uri": "textures/sushi_specularGlossiness.png"
    },
    {
      "uri": "textures/sushi_occlusion.png"
    },
    {
      "uri": "textures/sumeshi_diffuse.jpeg"
    },
    {
      "uri": "textures/sumeshi_specularGlossiness.png"
    },
    {
      "uri": "textures/sumeshi_occlusion.png"
    }
  ],
  "materials": [
    {
      "doubleSided": true,
      "emissiveFactor": [
        0.322027439,
        0.322027439,
        0.322027439
      ],
      "emissiveTexture": {
        "index": 0
      },
      "extensions": {
        "KHR_materials_pbrSpecularGlossiness": {
          "diffuseFactor": [
            1.0,
            1.0,
            1.0,
            1.0
          ],
          "diffuseTexture": {
            "index": 0
          },
          "glossinessFactor": 1.0,
          "specularFactor": [
            0.5261051829268293,
            0.5261051829268293,
            0.5261051829268293
          ],
          "specularGlossinessTexture": {
            "index": 1
          }
        }
      },
      "name": "sushi",
      "occlusionTexture": {
        "index": 2
      }
    },
    {
      "doubleSided": true,
      "emissiveFactor": [
        0.9927591463,
        0.9927591463,
        0.9927591463
      ],
      "emissiveTexture": {
        "index": 3
      },
      "extensions": {
        "KHR_materials_pbrSpecularGlossiness": {
          "diffuseFactor": [
            1.0,
            1.0,
            1.0,
            1.0
          ],
          "diffuseTexture": {
            "index": 3
          },
          "glossinessFactor": 1.0,
          "specularFactor": [
            1.0,
            1.0,
            1.0
          ],
          "specularGlossinessTexture": {
            "index": 4
          }
        }
      },
      "name": "sumeshi",
      "occlusionTexture": {
        "index": 5,
        "strength": 0.15415396341463414
      }
    }
  ],
  "meshes": [
    {
      "name": "Object_0",
      "primitives": [
        {
          "attributes": {
            "NORMAL": 1,
            "POSITION": 0,
            "TEXCOORD_0": 2
          },
          "indices": 3,
          "material": 0,
          "mode": 4
        }
      ]
    },
    {
      "name": "Object_1",
      "primitives": [
        {
          "attributes": {
            "NORMAL": 5,
            "POSITION": 4,
            "TEXCOORD_0": 6
          },
          "indices": 7,
          "material": 1,
          "mode": 4
        }
      ]
    }
  ],
  "nodes": [
    {
      "children": [
        1
      ],
      "matrix": [
        1.0,
        0.0,
        0.0,
        0.0,
        0.0,
        2.220446049250313e-16,
        -1.0,
        0.0,
        0.0,
        1.0,
        2.220446049250313e-16,
        0.0,
        0.0,
        0.0,
        0.0,
        1.0
      ],
      "name": "Sketchfab_model"
    },
    {
      "children": [
        2
      ],
      "name": "root"
    },
    {
      "children": [
        3,
        5
      ],
      "matrix": [
        1.0,
        0.0,
        0.0,
        0.0,
        0.0,
        2.220446049250313e-16,
        1.0,
        0.0,
        0.0,
        -1.0,
        2.220446049250313e-16,
        0.0,
        0.0,
        0.0,
        0.0,
        1.0
      ],
      "name": "GLTF_SceneRootNode"
    },
    {
      "children": [
        4
      ],
      "matrix": [
        0.010780110955238342,
        0.0,
        0.0,
        0.0,
        0.0,
        0.010780110955238342,
        -2.3936654781038996e-18,
        0.0,
        0.0,
        2.3936654781038996e-18,
        0.010780110955238342,
        0.0,
        0.004797644447535276,
        0.02002704329788685,
        0.00899494532495737,
        1.0
      ],
      "name": "neta11_0"
    },
    {
      "mesh": 0,
      "name": "Object_4"
    },
    {
      "children": [
        6
      ],
      "matrix": [
        0.016847677528858185,
        0.0,
        0.0,
        0.0,
        0.0,
        0.016847677528858185,
        0.0,
        0.0,
        0.0,
        0.0,
        0.016847677528858185,
        0.0,
        0.0,
        0.0010733839590102434,
        -2.220446154715841e-19,
        1.0
      ],
      "name": "sumeshi11_1"
    },
    {
      "mesh": 1,
      "name": "Object_6"
    }
  ],
  "samplers": [
    {
      "magFilter": 9729,
      "minFilter": 9987,
      "wrapS": 10497,
      "wrapT": 10497
    }
  ],
  "scene": 0,
  "scenes": [
    {
      "name": "Sketchfab_Scene",
      "nodes": [
        0
      ]
    }
  ],
  "textures": [
    {
      "sampler": 0,
      "source": 0
    },
    {
      "sampler": 0,
      "source": 1
    },
    {
      "sampler": 0,
      "source": 2
    },
    {
      "sampler": 0,
      "source": 3
    },
    {
      "sampler": 0,
      "source": 4
    },
    {
      "sampler": 0,
      "source": 5
    }
  ]
}
