{
  "accessors": [
    {
      "bufferView": 2,
      "componentType": 5126,
      "count": 5405,
      "max": [
        3.5261199474334717,
        4.186938762664795,
        3.5308029651641846
      ],
      "min": [
        -3.5261199474334717,
        -0.007627000100910664,
        -3.53056001663208
      ],
      "type": "VEC3"
    },
    {
      "bufferView": 2,
      "byteOffset": 64860,
      "componentType": 5126,
      "count": 5405,
      "max": [
        0.9986595511436462,
        1.0,
        0.9999977350234985
      ],
      "min": [
        -0.9986595511436462,
        -1.0,
        -0.9999977350234985
      ],
      "type": "VEC3"
    },
    {
      "bufferView": 3,
      "componentType": 5126,
      "count": 5405,
      "max": [
        1.0,
        0.9999968409538269,
        0.9993928074836731,
        1.0
      ],
      "min": [
        -0.9999995827674866,
        -0.8700109124183655,
        -0.9994093179702759,
        -1.0
      ],
      "type": "VEC4"
    },
    {
      "bufferView": 1,
      "componentType": 5126,
      "count": 5405,
      "max": [
        0.7623370289802551,
        0.9986140131950378
      ],
      "min": [
        0.0035290000960230827,
        0.007751999888569117
      ],
      "type": "VEC2"
    },
    {
      "bufferView": 0,
      "componentType": 5125,
      "count": 30876,
      "type": "SCALAR"
    }
  ],
  "asset": {
    "extras": {
      "author": "Just8 (https://sketchfab.com/Just8)",
      "license": "CC-BY-4.0 (http://creativecommons.org/licenses/by/4.0/)",
      "source": "https://sketchfab.com/3d-models/soy-sauce-cup-c2bd80794a3947238fe610f5733be9d2",
      "title": "Soy sauce cup"
    },
    "generator": "Sketchfab-13.44.0",
    "version": "2.0"
  },
  "bufferViews": [
    {
      "buffer": 0,
      "byteLength": 123504,
      "name": "floatBufferViews",
      "target": 34963
    },
    {
      "buffer": 0,
      "byteLength": 43240,
      "byteOffset": 123504,
      "byteStride": 8,
      "name": "floatBufferViews",
      "target": 34962
    },
    {
      "buffer": 0,
      "byteLength": 129720,
      "byteOffset": 166744,
      "byteStride": 12,
      "name": "floatBufferViews",
      "target": 34962
    },
    {
      "buffer": 0,
      "byteLength": 86480,
      "byteOffset": 296464,
      "byteStride": 16,
      "name": "floatBufferViews",
      "target": 34962
    }
  ],
  "buffers": [
    {
      "byteLength": 382944,
      "uri": "scene.bin"
    }
  ],
  "images": [
    {
      "uri": "textures/lambert1_baseColor.jpeg"
    },
    {
      "uri": "textures/lambert1_metallicRoughness.png"
    },
    {
      "uri": "textures/lambert1_normal.png"
    }
  ],
  "materials": [
    {
      "name": "lambert1",
      "normalTexture": {
        "index": 2
      },
      "occlusionTexture": {
        "index": 1
      },
      "pbrMetallicRoughness": {
        "baseColorTexture": {
          "index": 0
        },
        "metallicRoughnessTexture": {
          "index": 1
        }
      }
    }
  ],
  "meshes": [
    {
      "name": "defaultMaterial",
      "primitives": [
        {
          "attributes": {
            "NORMAL": 1,
            "POSITION": 0,
            "TANGENT": 2,
            "TEXCOORD_0": 3
          },
          "indices": 4,
          "material": 0,
          "mode": 4
        }
      ]
    }
  ],
  "nodes": [
    {
      "children": [
        1
      ],
      "matrix": [
        0.017617540434002876,
        0.0,
        0.0,
        0.0,
        0.0,
        3.911879805418933e-18,
        -0.017617540434002876,
        0.0,
        0.0,
        0.017617540434002876,
        3.911879805418933e-18,
        0.0,
        0.0,
        0.0,
        0.0,
        1.0
      ],
      "name": "Sketchfab_model"
    },
    {
      "children": [
        2
      ],
      "matrix": [
        1.0,
        0.0,
        0.0,
        0.0,
        0.0,
        -4.371139006309477e-08,
        0.999999999999999,
        0.0,
        0.0,
        -0.999999999999999,
        -4.371139006309477e-08,
        0.0,
        0.0,
        0.0,
        0.0,
        1.0
      ],
      "name": "Collada visual scene group"
    },
    {
      "children": [
        3
      ],
      "name": "nurbsToPoly1"
    },
    {
      "mesh": 0,
      "name": "defaultMaterial"
    }
  ],
  "samplers": [
    {
      "magFilter": 9729,
      "minFilter": 9987,
      "wrapS": 10497,
      "wrapT": 10497
    }
  ],
  "scene": 0,
  "scenes": [
    {
      "name": "Sketchfab_Scene",
      "nodes": [
        0
      ]
    }
  ],
  "textures": [
    {
      "sampler": 0,
      "source": 0
    },
    {
      "sampler": 0,
      "source": 1
    },
    {
      "sampler": 0,
      "source": 2
    }
  ]
}
